<svg width="383" height="64" viewBox="0 0 383 64" fill="none" xmlns="http://www.w3.org/2000/svg">
<g clip-path="url(#clip0_26_12350)">
<path d="M343.831 41.2891H343.587C342.672 41.2891 341.817 41.838 341.451 42.6309C341.451 42.6309 341.39 42.7528 341.329 42.9358C341.329 42.9358 341.329 42.9358 341.329 42.8748C341.085 43.3017 340.78 43.8506 340.596 44.0946C338.765 46.6561 335.835 48.3638 332.539 48.3638C327.229 48.3638 322.651 43.7286 322.651 38.3617C322.651 32.6898 327.168 28.2986 332.539 28.2986C335.957 28.2986 339.07 30.0672 340.902 32.9337C341.085 33.1777 341.146 33.3606 341.207 33.4216C341.146 33.3606 341.146 33.2996 341.146 33.1777C341.451 34.1535 342.367 34.8243 343.465 34.8243H343.587C344.93 34.8243 346.029 33.7266 346.029 32.3848V32.3238C346.029 31.7749 345.846 31.226 345.48 30.7991C342.977 26.7129 338.338 23.8464 332.661 23.8464C323.933 23.8464 317.707 30.4942 317.707 38.3007C317.707 46.2292 323.628 52.6939 332.661 52.6939C338.887 52.6939 343.709 49.5835 346.029 44.9484C346.212 44.5825 346.334 44.2166 346.334 43.7896V43.5457C346.212 42.3869 345.174 41.2891 343.831 41.2891Z" fill="#557EBF"/>
<path d="M381.798 38.4837C381.798 38.4227 381.798 38.3617 381.798 38.3007C381.798 30.6162 375.633 24.0294 367.026 24.0294C358.42 24.0294 352.255 30.6162 352.255 38.3007C352.255 46.1072 358.115 52.511 367.026 52.511C371.055 52.511 374.595 51.1692 377.098 48.9737V50.3764C377.098 50.3764 377.098 50.3764 377.098 50.4374C377.098 50.4374 377.098 50.4374 377.098 50.4984C377.159 51.7791 378.135 52.8159 379.417 52.8159C380.699 52.8159 381.737 51.7791 381.737 50.4984C381.737 50.4984 381.737 50.4984 381.737 50.4374C381.737 50.4374 381.737 50.4374 381.737 50.3764V38.4837H381.798ZM367.087 48.1198C361.899 48.1198 357.321 43.5457 357.321 38.3007C357.321 32.6898 361.777 28.4206 367.087 28.4206C372.276 28.4206 376.854 32.6288 376.854 38.3007C376.793 43.5457 372.337 48.1198 367.087 48.1198Z" fill="#557EBF"/>
<path d="M310.565 26.347C310.565 25.0662 309.528 24.0294 308.246 24.0294C306.964 24.0294 305.927 25.0662 305.927 26.347C305.927 26.347 305.927 26.347 305.927 26.408V50.4984C305.927 50.4984 305.927 50.4984 305.927 50.5594C305.927 50.6204 305.927 50.5594 305.927 50.6204C305.988 51.9011 306.964 52.9379 308.246 52.9379C309.528 52.9379 310.565 51.9011 310.565 50.6204C310.565 50.6204 310.565 50.6204 310.565 50.5594C310.565 50.4984 310.565 50.5594 310.565 50.4984V26.347Z" fill="#557EBF"/>
<path d="M298.174 37.0199C298.174 36.959 298.174 36.898 298.174 36.898V36.532C297.93 29.7013 292.681 24.0294 284.746 24.0294C276.811 24.0294 271.562 29.6403 271.317 36.532V50.6204C271.317 51.9011 272.355 52.9379 273.637 52.9379C274.919 52.9379 275.956 51.9011 275.956 50.6204V37.0199C275.956 32.2628 280.046 28.0547 284.807 28.0547C289.568 28.0547 293.658 32.2628 293.658 37.0199V50.6204C293.658 51.9011 294.695 52.9379 295.977 52.9379C297.259 52.9379 298.297 51.9011 298.297 50.6204V37.6298V37.5688C298.297 37.5688 298.297 37.5688 298.297 37.5078L298.174 37.0199Z" fill="#557EBF"/>
<path d="M162.974 38.5446C162.974 30.7381 156.748 24.0904 148.019 24.0904C139.291 24.0904 133.065 30.7381 133.065 38.5446C133.065 46.4731 138.985 52.9379 148.019 52.9379C152.109 52.9379 155.649 51.5961 158.213 49.3396V50.7423C158.213 50.7423 158.213 50.7423 158.213 50.8033C158.213 50.8033 158.213 50.8033 158.213 50.8643C158.274 52.145 159.311 53.1818 160.593 53.1818C161.875 53.1818 162.913 52.145 162.974 50.8643C162.974 50.8643 162.974 50.8643 162.974 50.8033C162.974 50.8033 162.974 50.8033 162.974 50.7423V38.6666C162.974 38.6666 162.974 38.6056 162.974 38.5446ZM148.019 48.4857C142.709 48.4857 138.131 43.8506 138.131 38.4836C138.131 32.8117 142.648 28.4206 148.019 28.4206C153.329 28.4206 157.907 32.6898 157.907 38.4836C157.907 43.7896 153.39 48.4857 148.019 48.4857Z" fill="#305BAA"/>
<path d="M127.205 48.7907H125.801C124.275 48.7907 122.749 47.7539 122.749 44.6435V16.7108V16.6498V16.5888V16.4059C122.688 15.1861 121.65 14.1493 120.369 14.1493C119.087 14.1493 118.049 15.1251 117.988 16.4059V44.9484C117.988 50.6813 120.918 53.2428 125.313 53.2428H127.266C128.487 53.2428 129.463 52.267 129.463 51.0473C129.402 49.7665 128.426 48.7907 127.205 48.7907Z" fill="#305BAA"/>
<path d="M194.287 24.0904C193.188 23.5415 191.784 24.0294 191.235 25.1272L180.919 46.0462L170.542 25.1272C169.993 24.0294 168.65 23.5415 167.491 24.0904C166.392 24.6393 165.904 25.9811 166.453 27.1398L178.905 52.2061C179.271 52.9989 180.064 53.4868 180.919 53.4868C181.774 53.4868 182.567 52.9989 182.933 52.2061L195.263 27.1398C195.874 25.9811 195.385 24.6393 194.287 24.0904Z" fill="#305BAA"/>
<path d="M214.551 23.8464C205.945 23.8464 199.475 30.0673 199.475 38.4227C199.475 47.083 206.006 52.9989 215.467 52.9989C219.618 52.9989 223.28 51.8401 226.149 49.6445C226.454 49.4006 227.186 48.7297 227.186 47.9368C227.186 46.5951 225.844 45.3143 224.562 45.3143C223.829 45.3143 223.524 45.4363 223.097 45.7413C220.961 47.205 218.641 48.6077 215.65 48.6077C210.706 48.6077 206.494 46.1072 205.457 41.716L205.09 40.2523H226.149C227.98 40.2523 229.201 39.0935 229.201 37.3859C229.14 32.0189 225.233 23.8464 214.551 23.8464ZM205.029 35.6782C205.945 31.0431 209.79 28.2376 214.307 28.2376C218.702 28.2376 222.914 31.1041 223.585 35.6782H205.029Z" fill="#305BAA"/>
<path d="M248.916 15.674C248.123 15.674 247.329 15.2471 246.902 14.4542C246.353 13.3564 246.78 11.9537 247.879 11.4048L261.124 4.51313C262.223 3.96424 263.627 4.39116 264.176 5.48895C264.725 6.58674 264.298 7.98947 263.199 8.53836L249.954 15.43C249.649 15.613 249.283 15.674 248.916 15.674Z" fill="#557EBF"/>
<path d="M25.8805 37.8127C26.7961 38.8495 28.322 38.9715 29.3597 38.0567C30.3974 37.1419 30.5194 35.6172 29.6039 34.5804C28.6883 33.5435 27.1623 33.4216 26.1246 34.3364C25.087 35.1292 24.9649 36.7759 25.8805 37.8127Z" fill="#305BAA"/>
<path d="M38.0882 9.57519C36.9285 9.08728 35.6467 9.69717 35.1583 10.795C34.67 11.9537 35.2804 13.2345 36.3791 13.7224C45.1687 17.2597 50.9674 25.7371 50.9674 35.2513C50.9674 48.0589 40.5298 58.4879 27.7116 58.4879C14.8935 58.4879 4.45583 48.0589 4.45583 35.2513C4.45583 25.8591 10.0104 17.5647 18.6168 13.9054C19.7766 13.4175 20.2649 12.1367 19.8376 10.9779C19.3493 9.81914 18.0675 9.33124 16.9077 9.75815C6.59219 14.0883 0 24.0904 0 35.2513C0 50.4984 12.4519 62.94 27.7116 62.94C42.9713 62.94 55.4232 50.4984 55.4232 35.2513C55.4232 23.9075 48.5869 13.7834 38.0882 9.57519Z" fill="#305BAA"/>
<path d="M13.5507 36.1051C13.5507 43.9726 19.8987 50.3154 27.7727 50.3154C35.6467 50.3154 41.9947 43.9726 41.9947 36.1051C41.9947 29.0305 36.7454 23.0536 29.848 22.0778V4.51314H35.8298C37.0506 4.51314 38.0883 3.53733 38.0883 2.25657C38.0883 1.0368 37.1116 0 35.8298 0H27.5285C26.3078 0 25.2701 0.975814 25.2701 2.25657V22.1388C18.6169 23.3586 13.5507 29.1524 13.5507 36.1051ZM37.4779 36.1051C37.4779 41.4111 33.1441 45.8023 27.7727 45.8023C22.4013 45.8023 18.0675 41.4721 18.0675 36.1051C18.0675 30.7381 22.4013 26.408 27.7727 26.408C33.1441 26.408 37.4779 30.7991 37.4779 36.1051Z" fill="#305BAA"/>
<path d="M92.1686 54.2187C80.9985 54.2187 71.9037 45.1314 71.9037 33.9706C71.9037 22.8097 80.9985 13.7224 92.1686 13.7224C99.2491 13.7224 105.963 17.5037 109.565 23.6635C110.175 24.7613 109.87 26.1031 108.771 26.7739C107.672 27.3838 106.33 27.0789 105.658 25.9811C102.85 21.285 97.601 18.2356 92.1075 18.2356C83.379 18.2356 76.3595 25.2492 76.3595 33.9706C76.3595 42.6919 83.379 49.7056 92.1075 49.7056C98.2114 49.7056 103.827 46.1682 106.391 40.5573C106.94 39.3985 108.283 38.9106 109.382 39.4595C110.541 40.0084 111.03 41.3501 110.48 42.4479C107.245 49.5836 100.043 54.2187 92.1686 54.2187Z" fill="#305BAA"/>
<path d="M263.016 16.101C261.795 16.101 260.758 17.1378 260.758 18.3575V39.3985C260.758 45.0094 256.18 49.7056 250.442 49.7056C244.827 49.7056 240.127 45.1314 240.127 39.3985V18.3575C240.127 17.1378 239.089 16.101 237.868 16.101C236.647 16.101 235.61 17.1378 235.61 18.3575V39.3985C235.61 47.571 242.263 54.2797 250.442 54.2797C258.621 54.2797 265.275 47.6929 265.275 39.4595V18.3575C265.275 17.1378 264.298 16.101 263.016 16.101Z" fill="#557EBF"/>
</g>
<defs>
<clipPath id="clip0_26_12350">
<rect width="382.316" height="64" fill="white"/>
</clipPath>
</defs>
</svg>
